<mxfile host="app.diagrams.net" modified="2021-07-11T21:01:16.904Z" agent="5.0 (Macintosh; Intel Mac OS X 10_15_7) AppleWebKit/537.36 (KHTML, like Gecko) Chrome/91.0.4472.114 Safari/537.36" etag="8N3DtO5mctTxE_xYES7F" version="14.8.5" type="github">
  <diagram id="YcrrAhD9_RUjna5XoT5H" name="Page-1">
    <mxGraphModel dx="1117" dy="646" grid="1" gridSize="10" guides="1" tooltips="1" connect="1" arrows="1" fold="1" page="1" pageScale="1" pageWidth="1654" pageHeight="2336" math="0" shadow="0">
      <root>
        <mxCell id="0" />
        <mxCell id="1" parent="0" />
        <mxCell id="aNBMr-aelkQjtGKcPv_b-1" value="" style="rounded=1;whiteSpace=wrap;html=1;fillColor=none;" parent="1" vertex="1">
          <mxGeometry x="490" y="50" width="150" height="70" as="geometry" />
        </mxCell>
        <mxCell id="aNBMr-aelkQjtGKcPv_b-2" value="&lt;font style=&quot;font-size: 14px&quot;&gt;DATASET&lt;br&gt;paired sequence&lt;br&gt;raw data(&lt;b&gt;fastq format&lt;/b&gt;)&lt;br&gt;&lt;/font&gt;" style="text;html=1;align=center;verticalAlign=middle;resizable=0;points=[];autosize=1;strokeColor=none;" parent="1" vertex="1">
          <mxGeometry x="485" y="60" width="160" height="50" as="geometry" />
        </mxCell>
        <mxCell id="aNBMr-aelkQjtGKcPv_b-3" value="" style="strokeWidth=2;html=1;shape=mxgraph.flowchart.annotation_2;align=left;labelPosition=right;pointerEvents=1;fillColor=none;rotation=90;" parent="1" vertex="1">
          <mxGeometry x="512.5" y="-107.5" width="50" height="505" as="geometry" />
        </mxCell>
        <mxCell id="aNBMr-aelkQjtGKcPv_b-4" value="" style="ellipse;whiteSpace=wrap;html=1;strokeColor=#000000;fillColor=none;dashed=1;" parent="1" vertex="1">
          <mxGeometry x="132" y="150" width="830" height="90" as="geometry" />
        </mxCell>
        <mxCell id="aNBMr-aelkQjtGKcPv_b-5" value="&lt;font style=&quot;font-size: 14px&quot;&gt;&lt;b&gt;&lt;font color=&quot;#ff3333&quot;&gt;filter&lt;/font&gt;&lt;/b&gt;&lt;b&gt;&lt;font color=&quot;#ff3333&quot;&gt;/trim&lt;/font&gt;&lt;/b&gt;&lt;b&gt;&lt;font color=&quot;#ff3333&quot;&gt;&lt;br&gt;&lt;/font&gt;&lt;/b&gt;&amp;nbsp;Illumina reads&lt;br&gt;tool: sickle&lt;br&gt;&lt;/font&gt;" style="rounded=1;whiteSpace=wrap;html=1;fillColor=none;" parent="1" vertex="1">
          <mxGeometry x="210.5" y="170" width="173.5" height="50" as="geometry" />
        </mxCell>
        <mxCell id="aNBMr-aelkQjtGKcPv_b-6" value="&lt;font style=&quot;font-size: 14px&quot;&gt;&lt;b&gt;&lt;font color=&quot;#ff3333&quot;&gt;filter&lt;/font&gt;&lt;/b&gt;&lt;b&gt;&lt;font color=&quot;#ff3333&quot;&gt;/trim&lt;/font&gt;&lt;/b&gt;&lt;b&gt;&lt;font color=&quot;#ff3333&quot;&gt;&lt;br&gt;&lt;/font&gt;&lt;/b&gt;&amp;nbsp;Illumina reads&lt;br&gt;tool: trimmomatic&lt;br&gt;&lt;/font&gt;" style="rounded=1;whiteSpace=wrap;html=1;fillColor=none;" parent="1" vertex="1">
          <mxGeometry x="471.5" y="170" width="173.5" height="50" as="geometry" />
        </mxCell>
        <mxCell id="aNBMr-aelkQjtGKcPv_b-7" value="&lt;font style=&quot;font-size: 14px&quot;&gt;&lt;b&gt;&lt;font color=&quot;#ff3333&quot;&gt;filter/trim&lt;/font&gt;&lt;/b&gt;&amp;nbsp;Illumina reads&lt;br&gt;tool: prinseq&lt;br&gt;&lt;/font&gt;" style="rounded=1;whiteSpace=wrap;html=1;fillColor=none;" parent="1" vertex="1">
          <mxGeometry x="700" y="170" width="173.5" height="50" as="geometry" />
        </mxCell>
        <mxCell id="aNBMr-aelkQjtGKcPv_b-9" value="" style="endArrow=none;html=1;strokeWidth=2;" parent="1" edge="1">
          <mxGeometry width="50" height="50" relative="1" as="geometry">
            <mxPoint x="553" y="170" as="sourcePoint" />
            <mxPoint x="553" y="146" as="targetPoint" />
          </mxGeometry>
        </mxCell>
        <mxCell id="aNBMr-aelkQjtGKcPv_b-10" value="&lt;font style=&quot;font-size: 14px&quot;&gt;or&lt;/font&gt;" style="text;html=1;align=center;verticalAlign=middle;resizable=0;points=[];autosize=1;strokeColor=none;" parent="1" vertex="1">
          <mxGeometry x="660" y="185" width="30" height="20" as="geometry" />
        </mxCell>
        <mxCell id="aNBMr-aelkQjtGKcPv_b-11" value="&lt;font style=&quot;font-size: 14px&quot;&gt;or&lt;/font&gt;" style="text;html=1;align=center;verticalAlign=middle;resizable=0;points=[];autosize=1;strokeColor=none;" parent="1" vertex="1">
          <mxGeometry x="410" y="185" width="30" height="20" as="geometry" />
        </mxCell>
        <mxCell id="aNBMr-aelkQjtGKcPv_b-12" value="&lt;font style=&quot;font-size: 14px&quot;&gt;Quality Control&lt;br&gt;tool: fastqc&lt;br&gt;&lt;/font&gt;" style="rounded=1;whiteSpace=wrap;html=1;fillColor=none;dashed=1;strokeColor=#FF3333;" parent="1" vertex="1">
          <mxGeometry x="488" y="281" width="140.5" height="40" as="geometry" />
        </mxCell>
        <mxCell id="aNBMr-aelkQjtGKcPv_b-13" value="" style="endArrow=none;html=1;" parent="1" edge="1">
          <mxGeometry width="50" height="50" relative="1" as="geometry">
            <mxPoint x="556.64" y="280" as="sourcePoint" />
            <mxPoint x="556.64" y="240" as="targetPoint" />
          </mxGeometry>
        </mxCell>
        <mxCell id="aNBMr-aelkQjtGKcPv_b-14" value="" style="html=1;whiteSpace=wrap;aspect=fixed;shape=isoRectangle;fillColor=none;rotation=90;dashed=1;strokeColor=#FF3333;" parent="1" vertex="1">
          <mxGeometry x="525.97" y="368.005" width="66.07" height="39.64" as="geometry" />
        </mxCell>
        <mxCell id="aNBMr-aelkQjtGKcPv_b-15" value="&lt;font style=&quot;font-size: 12px&quot;&gt;OK&lt;/font&gt;" style="text;html=1;align=center;verticalAlign=middle;resizable=0;points=[];autosize=1;strokeColor=none;" parent="1" vertex="1">
          <mxGeometry x="544.2900000000001" y="378.825" width="30" height="20" as="geometry" />
        </mxCell>
        <mxCell id="aNBMr-aelkQjtGKcPv_b-16" value="" style="endArrow=none;html=1;exitX=0.503;exitY=1.005;exitDx=0;exitDy=0;exitPerimeter=0;strokeColor=#FF3333;dashed=1;" parent="1" source="aNBMr-aelkQjtGKcPv_b-14" edge="1">
          <mxGeometry width="50" height="50" relative="1" as="geometry">
            <mxPoint x="540" y="390" as="sourcePoint" />
            <mxPoint x="92" y="194.00499999999997" as="targetPoint" />
            <Array as="points">
              <mxPoint x="92" y="390" />
            </Array>
          </mxGeometry>
        </mxCell>
        <mxCell id="aNBMr-aelkQjtGKcPv_b-17" value="" style="endArrow=classic;html=1;dashed=1;strokeColor=#FF3333;" parent="1" edge="1">
          <mxGeometry width="50" height="50" relative="1" as="geometry">
            <mxPoint x="93.5" y="194.71499999999997" as="sourcePoint" />
            <mxPoint x="132" y="194.71499999999997" as="targetPoint" />
            <Array as="points" />
          </mxGeometry>
        </mxCell>
        <mxCell id="aNBMr-aelkQjtGKcPv_b-18" value="false&amp;nbsp;" style="text;html=1;align=center;verticalAlign=middle;resizable=0;points=[];autosize=1;strokeColor=none;" parent="1" vertex="1">
          <mxGeometry x="470" y="368.005" width="40" height="20" as="geometry" />
        </mxCell>
        <mxCell id="aNBMr-aelkQjtGKcPv_b-19" value="" style="endArrow=none;html=1;" parent="1" edge="1">
          <mxGeometry width="50" height="50" relative="1" as="geometry">
            <mxPoint x="559" y="354" as="sourcePoint" />
            <mxPoint x="558.93" y="321.5" as="targetPoint" />
          </mxGeometry>
        </mxCell>
        <mxCell id="aNBMr-aelkQjtGKcPv_b-20" value="" style="endArrow=none;html=1;" parent="1" edge="1">
          <mxGeometry width="50" height="50" relative="1" as="geometry">
            <mxPoint x="558.24" y="450" as="sourcePoint" />
            <mxPoint x="558.24" y="420" as="targetPoint" />
          </mxGeometry>
        </mxCell>
        <mxCell id="aNBMr-aelkQjtGKcPv_b-21" value="" style="shape=cylinder3;whiteSpace=wrap;html=1;boundedLbl=1;backgroundOutline=1;size=15;fillColor=none;" parent="1" vertex="1">
          <mxGeometry x="510" y="430" width="100" height="100" as="geometry" />
        </mxCell>
        <mxCell id="aNBMr-aelkQjtGKcPv_b-22" value="trimmed/cleaned &lt;br&gt;reads&lt;br&gt;&lt;font style=&quot;font-size: 12px&quot;&gt;(fastq format)&lt;/font&gt;" style="text;html=1;align=center;verticalAlign=middle;resizable=0;points=[];autosize=1;strokeColor=none;" parent="1" vertex="1">
          <mxGeometry x="509.01" y="461" width="100" height="50" as="geometry" />
        </mxCell>
        <mxCell id="aNBMr-aelkQjtGKcPv_b-24" value="&lt;font style=&quot;font-size: 14px&quot;&gt;genome assembly process&lt;br&gt;tool: spades&lt;br&gt;&lt;/font&gt;" style="rounded=1;whiteSpace=wrap;html=1;fillColor=none;" parent="1" vertex="1">
          <mxGeometry x="360" y="568" width="173.5" height="50" as="geometry" />
        </mxCell>
        <mxCell id="aNBMr-aelkQjtGKcPv_b-25" value="&lt;font style=&quot;font-size: 14px&quot;&gt;genome assembly process&lt;br&gt;tool: megahit&lt;br&gt;&lt;/font&gt;" style="rounded=1;whiteSpace=wrap;html=1;fillColor=none;" parent="1" vertex="1">
          <mxGeometry x="592.04" y="569" width="173.5" height="50" as="geometry" />
        </mxCell>
        <mxCell id="aNBMr-aelkQjtGKcPv_b-26" value="" style="strokeWidth=2;html=1;shape=mxgraph.flowchart.annotation_2;align=left;labelPosition=right;pointerEvents=1;fillColor=none;rotation=90;" parent="1" vertex="1">
          <mxGeometry x="537.76" y="432" width="46.5" height="225.62" as="geometry" />
        </mxCell>
        <mxCell id="aNBMr-aelkQjtGKcPv_b-27" value="&lt;span style=&quot;background-color: transparent ; font-family: &amp;#34;arial&amp;#34; ; font-size: 11pt&quot;&gt;&lt;br&gt;&lt;br&gt;&lt;div&gt;&lt;span style=&quot;background-color: transparent ; font-size: 11pt&quot;&gt;Files:&lt;/span&gt;&lt;/div&gt;&lt;div&gt;&lt;span style=&quot;background-color: transparent ; font-size: 11pt&quot;&gt;assembly_.gfa&lt;/span&gt;&lt;/div&gt;&lt;/span&gt;&lt;font&gt;&lt;span id=&quot;docs-internal-guid-cc6428ca-7fff-5086-9745-b3cb8cfeb6d4&quot; style=&quot;font-size: 14px&quot;&gt;&lt;p dir=&quot;ltr&quot; style=&quot;line-height: 1.38 ; margin-top: 0pt ; margin-bottom: 0pt&quot;&gt;&lt;span style=&quot;font-size: 11pt ; font-family: &amp;#34;arial&amp;#34; ; background-color: transparent ; vertical-align: baseline&quot;&gt;before_.fasta&lt;/span&gt;&lt;/p&gt;&lt;p dir=&quot;ltr&quot; style=&quot;line-height: 1.38 ; margin-top: 0pt ; margin-bottom: 0pt&quot;&gt;&lt;span style=&quot;font-size: 11pt ; font-family: &amp;#34;arial&amp;#34; ; background-color: transparent ; vertical-align: baseline&quot;&gt;assembly_.fastg&lt;/span&gt;&lt;/p&gt;&lt;p dir=&quot;ltr&quot; style=&quot;line-height: 1.38 ; margin-top: 0pt ; margin-bottom: 0pt&quot;&gt;&lt;span style=&quot;background-color: transparent ; font-family: &amp;#34;arial&amp;#34; ; font-size: 11pt&quot;&gt;&lt;b&gt;contigs.fasta&lt;/b&gt;&lt;/span&gt;&lt;/p&gt;&lt;p dir=&quot;ltr&quot; style=&quot;line-height: 1.38 ; margin-top: 0pt ; margin-bottom: 0pt&quot;&gt;&lt;span style=&quot;background-color: transparent ; font-family: &amp;#34;arial&amp;#34; ; font-size: 11pt&quot;&gt;contigs.paths&lt;/span&gt;&lt;/p&gt;&lt;p dir=&quot;ltr&quot; style=&quot;line-height: 1.38 ; margin-top: 0pt ; margin-bottom: 0pt&quot;&gt;&lt;span style=&quot;background-color: transparent ; font-family: &amp;#34;arial&amp;#34; ; font-size: 11pt&quot;&gt;&lt;b&gt;scaffolds.fasta&lt;/b&gt;&lt;/span&gt;&lt;/p&gt;&lt;p dir=&quot;ltr&quot; style=&quot;line-height: 1.38 ; margin-top: 0pt ; margin-bottom: 0pt&quot;&gt;&lt;span style=&quot;background-color: transparent ; font-family: &amp;#34;arial&amp;#34; ; font-size: 11pt&quot;&gt;scaffolds.paths&lt;/span&gt;&lt;/p&gt;&lt;p dir=&quot;ltr&quot; style=&quot;line-height: 1.38 ; margin-top: 0pt ; margin-bottom: 0pt&quot;&gt;&lt;span style=&quot;background-color: transparent ; font-family: &amp;#34;arial&amp;#34; ; font-size: 11pt&quot;&gt;_.log/_.fasta&lt;/span&gt;&lt;/p&gt;&lt;/span&gt;&lt;div&gt;&lt;span style=&quot;font-size: 14px&quot;&gt;&lt;br&gt;&lt;/span&gt;&lt;/div&gt;&lt;br&gt;&lt;/font&gt;" style="rounded=0;whiteSpace=wrap;html=1;fillColor=none;align=left;strokeColor=#FF3333;dashed=1;" parent="1" vertex="1">
          <mxGeometry x="499" y="651" width="130" height="180" as="geometry" />
        </mxCell>
        <mxCell id="aNBMr-aelkQjtGKcPv_b-28" value="" style="strokeWidth=2;html=1;shape=mxgraph.flowchart.annotation_2;align=left;labelPosition=right;pointerEvents=1;fillColor=none;rotation=-90;" parent="1" vertex="1">
          <mxGeometry x="547.59" y="522" width="32.81" height="229.56" as="geometry" />
        </mxCell>
        <mxCell id="aNBMr-aelkQjtGKcPv_b-29" value="&lt;span style=&quot;text-align: left&quot;&gt;&lt;b&gt;_contigs.fasta&lt;/b&gt;&lt;/span&gt;" style="text;html=1;align=center;verticalAlign=middle;resizable=0;points=[];autosize=1;strokeColor=#000000;" parent="1" vertex="1">
          <mxGeometry x="508" y="863" width="100" height="20" as="geometry" />
        </mxCell>
        <mxCell id="aNBMr-aelkQjtGKcPv_b-30" value="" style="endArrow=none;html=1;fontColor=#FF3333;strokeWidth=1;" parent="1" edge="1">
          <mxGeometry width="50" height="50" relative="1" as="geometry">
            <mxPoint x="554.76" y="862" as="sourcePoint" />
            <mxPoint x="554.76" y="832" as="targetPoint" />
          </mxGeometry>
        </mxCell>
        <mxCell id="aNBMr-aelkQjtGKcPv_b-31" value="" style="rounded=0;whiteSpace=wrap;html=1;fontColor=#FF3333;fillColor=none;" parent="1" vertex="1">
          <mxGeometry x="479.25" y="734" width="169.5" height="14" as="geometry" />
        </mxCell>
        <mxCell id="aNBMr-aelkQjtGKcPv_b-33" value="&lt;font style=&quot;font-size: 14px&quot;&gt;Quality Control - metrics for comparison&lt;br&gt;tool: quast&lt;br&gt;&lt;/font&gt;" style="rounded=1;whiteSpace=wrap;html=1;fillColor=none;" parent="1" vertex="1">
          <mxGeometry x="436.17" y="1011" width="259.83" height="49" as="geometry" />
        </mxCell>
        <mxCell id="aNBMr-aelkQjtGKcPv_b-34" value="" style="endArrow=classic;html=1;" parent="1" edge="1">
          <mxGeometry width="50" height="50" relative="1" as="geometry">
            <mxPoint x="557.5" y="883" as="sourcePoint" />
            <mxPoint x="557.5" y="921" as="targetPoint" />
          </mxGeometry>
        </mxCell>
        <mxCell id="aNBMr-aelkQjtGKcPv_b-37" value="&lt;font style=&quot;font-size: 14px&quot;&gt;&lt;b&gt;&lt;font color=&quot;#ff3333&quot;&gt;filter&lt;/font&gt;&lt;/b&gt; Illumina reads&lt;br&gt;tool: prinseq&lt;br&gt;&lt;/font&gt;" style="rounded=1;whiteSpace=wrap;html=1;fillColor=none;" parent="1" vertex="1">
          <mxGeometry x="472" y="920" width="173.5" height="50" as="geometry" />
        </mxCell>
        <mxCell id="aNBMr-aelkQjtGKcPv_b-38" value="&lt;span id=&quot;docs-internal-guid-6b08e602-7fff-a12a-f092-556ab899f12a&quot;&gt;&lt;span style=&quot;font-family: &amp;#34;arial&amp;#34; ; color: rgb(0 , 0 , 0) ; background-color: transparent ; vertical-align: baseline&quot;&gt;&lt;i&gt;Maintaining minimum length of each contig to be &lt;br&gt;kept in the genome after the assembly&lt;/i&gt;&lt;/span&gt;&lt;/span&gt;" style="text;html=1;align=left;verticalAlign=middle;resizable=0;points=[];autosize=1;strokeColor=none;fontColor=#FF3333;" parent="1" vertex="1">
          <mxGeometry x="655" y="929" width="270" height="30" as="geometry" />
        </mxCell>
        <mxCell id="aNBMr-aelkQjtGKcPv_b-40" value="" style="endArrow=classic;html=1;" parent="1" edge="1">
          <mxGeometry width="50" height="50" relative="1" as="geometry">
            <mxPoint x="558" y="971" as="sourcePoint" />
            <mxPoint x="558" y="1009" as="targetPoint" />
          </mxGeometry>
        </mxCell>
        <mxCell id="aNBMr-aelkQjtGKcPv_b-41" value="&lt;font style=&quot;font-size: 14px&quot;&gt;Differents reports indicating/comparing&amp;nbsp;&lt;br&gt;the quality of both sequences&amp;nbsp;&lt;br&gt;&lt;/font&gt;" style="text;html=1;align=center;verticalAlign=middle;resizable=0;points=[];autosize=1;strokeColor=#000000;" parent="1" vertex="1">
          <mxGeometry x="437" y="1109" width="260" height="40" as="geometry" />
        </mxCell>
        <mxCell id="aNBMr-aelkQjtGKcPv_b-42" value="" style="endArrow=classic;html=1;" parent="1" edge="1">
          <mxGeometry width="50" height="50" relative="1" as="geometry">
            <mxPoint x="560.35" y="1061" as="sourcePoint" />
            <mxPoint x="560.35" y="1109" as="targetPoint" />
          </mxGeometry>
        </mxCell>
        <mxCell id="-7W4iuTu1Z6AKvaiP86M-1" value="&lt;font style=&quot;font-size: 14px&quot;&gt;Contig reordering&amp;nbsp;&lt;br&gt;tool:&amp;nbsp;&lt;span id=&quot;docs-internal-guid-eec0f8a5-7fff-683e-a7e2-8d98a260feaf&quot;&gt;&lt;span style=&quot;font-size: 11pt ; font-family: &amp;#34;arial&amp;#34; ; background-color: transparent ; vertical-align: baseline&quot;&gt;&amp;nbsp;mauve&lt;br&gt;&lt;/span&gt;&lt;/span&gt;&lt;span style=&quot;font-family: &amp;#34;arial&amp;#34; ; font-size: 14.6667px&quot;&gt;[script to geenrate output .tgz]&lt;/span&gt;&lt;br&gt;&lt;/font&gt;" style="rounded=1;whiteSpace=wrap;html=1;fillColor=none;" vertex="1" parent="1">
          <mxGeometry x="463" y="1199" width="207" height="61" as="geometry" />
        </mxCell>
        <mxCell id="-7W4iuTu1Z6AKvaiP86M-2" value="" style="rounded=1;whiteSpace=wrap;html=1;fillColor=none;" vertex="1" parent="1">
          <mxGeometry x="753.29" y="1194" width="150" height="70" as="geometry" />
        </mxCell>
        <mxCell id="-7W4iuTu1Z6AKvaiP86M-3" value="&lt;font style=&quot;font-size: 14px&quot;&gt;DATASET&lt;br&gt;genome reference files&lt;br&gt;(&lt;b&gt;fasta format&lt;/b&gt;)&lt;br&gt;&lt;/font&gt;" style="text;html=1;align=center;verticalAlign=middle;resizable=0;points=[];autosize=1;strokeColor=none;" vertex="1" parent="1">
          <mxGeometry x="749.29" y="1204" width="160" height="50" as="geometry" />
        </mxCell>
        <mxCell id="-7W4iuTu1Z6AKvaiP86M-4" value="" style="endArrow=classic;html=1;" edge="1" parent="1">
          <mxGeometry width="50" height="50" relative="1" as="geometry">
            <mxPoint x="752.7099999999999" y="1228" as="sourcePoint" />
            <mxPoint x="672.7099999999999" y="1228" as="targetPoint" />
          </mxGeometry>
        </mxCell>
        <mxCell id="-7W4iuTu1Z6AKvaiP86M-6" value="" style="endArrow=classic;html=1;" edge="1" parent="1">
          <mxGeometry width="50" height="50" relative="1" as="geometry">
            <mxPoint x="560.51" y="1150" as="sourcePoint" />
            <mxPoint x="560.51" y="1198" as="targetPoint" />
          </mxGeometry>
        </mxCell>
        <mxCell id="-7W4iuTu1Z6AKvaiP86M-7" value="&lt;font color=&quot;#000000&quot; face=&quot;arial&quot;&gt;&lt;i&gt;&lt;b&gt;This process just in case of&amp;nbsp; genome references files&amp;nbsp;&lt;/b&gt;&lt;/i&gt;&lt;/font&gt;" style="text;html=1;align=left;verticalAlign=middle;resizable=0;points=[];autosize=1;strokeColor=none;fontColor=#FF3333;" vertex="1" parent="1">
          <mxGeometry x="574.29" y="1168" width="320" height="20" as="geometry" />
        </mxCell>
        <mxCell id="-7W4iuTu1Z6AKvaiP86M-8" value="&lt;font style=&quot;font-size: 14px&quot;&gt;rRNA genes identification&amp;nbsp;&lt;br&gt;tool:&amp;nbsp;&lt;span id=&quot;docs-internal-guid-eec0f8a5-7fff-683e-a7e2-8d98a260feaf&quot;&gt;&lt;span style=&quot;font-size: 11pt ; font-family: &amp;#34;arial&amp;#34; ; background-color: transparent ; vertical-align: baseline&quot;&gt;&amp;nbsp;barrnap&lt;/span&gt;&lt;/span&gt;&lt;br&gt;&lt;/font&gt;" style="rounded=1;whiteSpace=wrap;html=1;fillColor=none;" vertex="1" parent="1">
          <mxGeometry x="410.5" y="1492" width="200" height="50" as="geometry" />
        </mxCell>
        <mxCell id="-7W4iuTu1Z6AKvaiP86M-9" value="" style="rounded=1;whiteSpace=wrap;html=1;fillColor=none;" vertex="1" parent="1">
          <mxGeometry x="425.5" y="1390" width="150" height="70" as="geometry" />
        </mxCell>
        <mxCell id="-7W4iuTu1Z6AKvaiP86M-10" value="&lt;font style=&quot;font-size: 14px&quot;&gt;DATASET&lt;br&gt;assembled GENOME&lt;br&gt;(&lt;b&gt;FASTA format&lt;/b&gt;)&lt;br&gt;&lt;/font&gt;" style="text;html=1;align=center;verticalAlign=middle;resizable=0;points=[];autosize=1;strokeColor=none;" vertex="1" parent="1">
          <mxGeometry x="432.5" y="1400" width="150" height="50" as="geometry" />
        </mxCell>
        <mxCell id="-7W4iuTu1Z6AKvaiP86M-11" value="" style="endArrow=none;html=1;startArrow=classic;startFill=1;" edge="1" parent="1">
          <mxGeometry width="50" height="50" relative="1" as="geometry">
            <mxPoint x="503.5" y="1490" as="sourcePoint" />
            <mxPoint x="503.5" y="1460" as="targetPoint" />
          </mxGeometry>
        </mxCell>
        <mxCell id="-7W4iuTu1Z6AKvaiP86M-12" value="&lt;font style=&quot;font-size: 14px&quot;&gt;taxonomic identification&amp;nbsp; process&lt;br&gt;tool: kraken2&lt;br&gt;&lt;/font&gt;" style="rounded=1;whiteSpace=wrap;html=1;fillColor=none;" vertex="1" parent="1">
          <mxGeometry x="840" y="570" width="173.5" height="50" as="geometry" />
        </mxCell>
        <mxCell id="-7W4iuTu1Z6AKvaiP86M-14" value="" style="endArrow=none;html=1;fontColor=#FF3333;strokeColor=#000000;strokeWidth=1;" edge="1" parent="1">
          <mxGeometry width="50" height="50" relative="1" as="geometry">
            <mxPoint x="673.29" y="544.31" as="sourcePoint" />
            <mxPoint x="920" y="544" as="targetPoint" />
          </mxGeometry>
        </mxCell>
        <mxCell id="-7W4iuTu1Z6AKvaiP86M-16" value="" style="endArrow=none;html=1;startArrow=classic;startFill=1;" edge="1" parent="1">
          <mxGeometry width="50" height="50" relative="1" as="geometry">
            <mxPoint x="921" y="573" as="sourcePoint" />
            <mxPoint x="921" y="543" as="targetPoint" />
          </mxGeometry>
        </mxCell>
        <mxCell id="-7W4iuTu1Z6AKvaiP86M-17" value="" style="endArrow=none;html=1;startArrow=classic;startFill=1;" edge="1" parent="1">
          <mxGeometry width="50" height="50" relative="1" as="geometry">
            <mxPoint x="970" y="570" as="sourcePoint" />
            <mxPoint x="970" y="500" as="targetPoint" />
          </mxGeometry>
        </mxCell>
        <mxCell id="-7W4iuTu1Z6AKvaiP86M-18" value="" style="shape=cylinder3;whiteSpace=wrap;html=1;boundedLbl=1;backgroundOutline=1;size=15;fillColor=none;" vertex="1" parent="1">
          <mxGeometry x="937.99" y="436" width="69.01" height="70" as="geometry" />
        </mxCell>
        <mxCell id="-7W4iuTu1Z6AKvaiP86M-19" value="krakenDB" style="text;html=1;align=center;verticalAlign=middle;resizable=0;points=[];autosize=1;strokeColor=none;" vertex="1" parent="1">
          <mxGeometry x="937" y="473" width="70" height="20" as="geometry" />
        </mxCell>
        <mxCell id="-7W4iuTu1Z6AKvaiP86M-20" value="&lt;font style=&quot;font-size: 14px&quot;&gt;kraken reports&lt;br&gt;&lt;/font&gt;" style="text;html=1;align=center;verticalAlign=middle;resizable=0;points=[];autosize=1;strokeColor=#000000;" vertex="1" parent="1">
          <mxGeometry x="889" y="670" width="100" height="20" as="geometry" />
        </mxCell>
        <mxCell id="-7W4iuTu1Z6AKvaiP86M-21" value="" style="endArrow=classic;html=1;" edge="1" parent="1">
          <mxGeometry width="50" height="50" relative="1" as="geometry">
            <mxPoint x="932.3499999999999" y="621" as="sourcePoint" />
            <mxPoint x="932.3499999999999" y="669" as="targetPoint" />
          </mxGeometry>
        </mxCell>
        <mxCell id="-7W4iuTu1Z6AKvaiP86M-23" value="&lt;font style=&quot;font-size: 14px&quot;&gt;taxonomic identification&amp;nbsp; process&lt;br&gt;tool: kraken2&lt;br&gt;&lt;/font&gt;" style="rounded=1;whiteSpace=wrap;html=1;fillColor=none;" vertex="1" parent="1">
          <mxGeometry x="1111.5" y="570" width="173.5" height="50" as="geometry" />
        </mxCell>
        <mxCell id="-7W4iuTu1Z6AKvaiP86M-24" value="" style="endArrow=none;html=1;startArrow=classic;startFill=1;" edge="1" parent="1">
          <mxGeometry width="50" height="50" relative="1" as="geometry">
            <mxPoint x="1272.01" y="570" as="sourcePoint" />
            <mxPoint x="1272.01" y="500" as="targetPoint" />
          </mxGeometry>
        </mxCell>
        <mxCell id="-7W4iuTu1Z6AKvaiP86M-25" value="krakenDB" style="text;html=1;align=center;verticalAlign=middle;resizable=0;points=[];autosize=1;strokeColor=none;" vertex="1" parent="1">
          <mxGeometry x="1238.5" y="473" width="70" height="20" as="geometry" />
        </mxCell>
        <mxCell id="-7W4iuTu1Z6AKvaiP86M-26" value="&lt;font style=&quot;font-size: 14px&quot;&gt;kraken reports&lt;br&gt;&lt;/font&gt;" style="text;html=1;align=center;verticalAlign=middle;resizable=0;points=[];autosize=1;strokeColor=#000000;" vertex="1" parent="1">
          <mxGeometry x="1160.5" y="670" width="100" height="20" as="geometry" />
        </mxCell>
        <mxCell id="-7W4iuTu1Z6AKvaiP86M-27" value="" style="endArrow=classic;html=1;" edge="1" parent="1">
          <mxGeometry width="50" height="50" relative="1" as="geometry">
            <mxPoint x="1203.85" y="621" as="sourcePoint" />
            <mxPoint x="1203.85" y="669" as="targetPoint" />
          </mxGeometry>
        </mxCell>
        <mxCell id="-7W4iuTu1Z6AKvaiP86M-29" value="" style="endArrow=none;html=1;startArrow=classic;startFill=1;" edge="1" parent="1">
          <mxGeometry width="50" height="50" relative="1" as="geometry">
            <mxPoint x="1150" y="567" as="sourcePoint" />
            <mxPoint x="1150" y="537" as="targetPoint" />
          </mxGeometry>
        </mxCell>
        <mxCell id="-7W4iuTu1Z6AKvaiP86M-30" value="" style="shape=cylinder3;whiteSpace=wrap;html=1;boundedLbl=1;backgroundOutline=1;size=15;fillColor=none;" vertex="1" parent="1">
          <mxGeometry x="1240" y="441" width="69.01" height="70" as="geometry" />
        </mxCell>
        <mxCell id="-7W4iuTu1Z6AKvaiP86M-31" value="" style="rounded=1;whiteSpace=wrap;html=1;fillColor=none;" vertex="1" parent="1">
          <mxGeometry x="1084" y="476.83" width="134" height="58.17" as="geometry" />
        </mxCell>
        <mxCell id="-7W4iuTu1Z6AKvaiP86M-32" value="&lt;font style=&quot;font-size: 14px&quot;&gt;DATASET&lt;br&gt;assembled GENOME&lt;br&gt;(&lt;b&gt;FASTA format&lt;/b&gt;)&lt;br&gt;&lt;/font&gt;" style="text;html=1;align=center;verticalAlign=middle;resizable=0;points=[];autosize=1;strokeColor=none;" vertex="1" parent="1">
          <mxGeometry x="1075" y="483.83000000000004" width="150" height="50" as="geometry" />
        </mxCell>
        <mxCell id="-7W4iuTu1Z6AKvaiP86M-33" value="" style="endArrow=none;html=1;startArrow=classic;startFill=1;" edge="1" parent="1">
          <mxGeometry width="50" height="50" relative="1" as="geometry">
            <mxPoint x="501.75" y="1581" as="sourcePoint" />
            <mxPoint x="501.75" y="1543" as="targetPoint" />
          </mxGeometry>
        </mxCell>
        <mxCell id="-7W4iuTu1Z6AKvaiP86M-34" value="&lt;font&gt;&lt;span style=&quot;font-size: 14px&quot;&gt;taxonomic identification&amp;nbsp;&lt;/span&gt;&lt;br&gt;&lt;span style=&quot;font-size: 14px&quot;&gt;classify bacterial and archaeal 16s rRNA sequencestool:&amp;nbsp;&lt;/span&gt;&lt;span id=&quot;docs-internal-guid-eec0f8a5-7fff-683e-a7e2-8d98a260feaf&quot; style=&quot;font-size: 14px&quot;&gt;&lt;span style=&quot;font-size: 11pt ; font-family: &amp;#34;arial&amp;#34; ; background-color: transparent ; vertical-align: baseline&quot;&gt;&amp;nbsp;classifier&lt;/span&gt;&lt;/span&gt;&lt;br&gt;&lt;/font&gt;" style="rounded=1;whiteSpace=wrap;html=1;fillColor=none;" vertex="1" parent="1">
          <mxGeometry x="366.5" y="1580" width="282" height="50" as="geometry" />
        </mxCell>
        <mxCell id="-7W4iuTu1Z6AKvaiP86M-35" value="&lt;font color=&quot;#000000&quot; face=&quot;arial&quot;&gt;&lt;i&gt;Only those that have correspondance with &lt;br&gt;raw reads.&lt;/i&gt;&lt;/font&gt;" style="text;html=1;align=left;verticalAlign=middle;resizable=0;points=[];autosize=1;strokeColor=none;fontColor=#FF3333;" vertex="1" parent="1">
          <mxGeometry x="123.00999999999999" y="1590" width="240" height="30" as="geometry" />
        </mxCell>
        <mxCell id="-7W4iuTu1Z6AKvaiP86M-37" value="" style="endArrow=none;html=1;fontColor=#FF3333;strokeColor=#000000;strokeWidth=1;" edge="1" parent="1">
          <mxGeometry width="50" height="50" relative="1" as="geometry">
            <mxPoint x="501.5799999999999" y="1553.31" as="sourcePoint" />
            <mxPoint x="760" y="1553" as="targetPoint" />
          </mxGeometry>
        </mxCell>
        <mxCell id="-7W4iuTu1Z6AKvaiP86M-38" value="" style="endArrow=none;html=1;startArrow=classic;startFill=1;" edge="1" parent="1">
          <mxGeometry width="50" height="50" relative="1" as="geometry">
            <mxPoint x="760.29" y="1591" as="sourcePoint" />
            <mxPoint x="760" y="1553" as="targetPoint" />
          </mxGeometry>
        </mxCell>
        <mxCell id="-7W4iuTu1Z6AKvaiP86M-39" value="&lt;font style=&quot;font-size: 14px&quot;&gt;&lt;span&gt;MLST (2 processes)&lt;br&gt;&lt;/span&gt;tool: mlst&lt;br&gt;Ecoli/Ecoli_2&lt;br&gt;&lt;/font&gt;" style="rounded=1;whiteSpace=wrap;html=1;fillColor=none;" vertex="1" parent="1">
          <mxGeometry x="689" y="1590" width="185" height="50" as="geometry" />
        </mxCell>
        <mxCell id="-7W4iuTu1Z6AKvaiP86M-40" value="" style="endArrow=none;html=1;fontColor=#FF3333;strokeColor=#000000;strokeWidth=1;" edge="1" parent="1">
          <mxGeometry width="50" height="50" relative="1" as="geometry">
            <mxPoint x="558.6199999999999" y="990.31" as="sourcePoint" />
            <mxPoint x="980" y="990" as="targetPoint" />
          </mxGeometry>
        </mxCell>
        <mxCell id="-7W4iuTu1Z6AKvaiP86M-41" value="&lt;font&gt;&lt;span style=&quot;font-size: 14px&quot;&gt;mass screening for antimicrobial resistance or virulence genes([2] processed 1 per db)&lt;br&gt;&lt;/span&gt;&lt;span style=&quot;font-size: 14px&quot;&gt;tool:&amp;nbsp;&lt;/span&gt;&lt;span id=&quot;docs-internal-guid-eec0f8a5-7fff-683e-a7e2-8d98a260feaf&quot; style=&quot;font-size: 14px&quot;&gt;&lt;span style=&quot;font-size: 11pt ; font-family: &amp;#34;arial&amp;#34; ; background-color: transparent ; vertical-align: baseline&quot;&gt;&amp;nbsp;abricate&lt;/span&gt;&lt;/span&gt;&lt;br&gt;&lt;/font&gt;" style="rounded=1;whiteSpace=wrap;html=1;fillColor=none;" vertex="1" parent="1">
          <mxGeometry x="880" y="1030" width="282" height="50" as="geometry" />
        </mxCell>
        <mxCell id="-7W4iuTu1Z6AKvaiP86M-42" value="" style="endArrow=none;html=1;startArrow=classic;startFill=1;" edge="1" parent="1">
          <mxGeometry width="50" height="50" relative="1" as="geometry">
            <mxPoint x="980" y="1029" as="sourcePoint" />
            <mxPoint x="979.71" y="991" as="targetPoint" />
          </mxGeometry>
        </mxCell>
        <mxCell id="-7W4iuTu1Z6AKvaiP86M-44" value="" style="shape=cylinder3;whiteSpace=wrap;html=1;boundedLbl=1;backgroundOutline=1;size=15;fillColor=none;" vertex="1" parent="1">
          <mxGeometry x="1052.99" y="880" width="135.01" height="100" as="geometry" />
        </mxCell>
        <mxCell id="-7W4iuTu1Z6AKvaiP86M-45" value="&lt;br&gt;db:&lt;br&gt;/resfinder/card/argannot&lt;br&gt;vfbd" style="text;html=1;align=center;verticalAlign=middle;resizable=0;points=[];autosize=1;strokeColor=none;" vertex="1" parent="1">
          <mxGeometry x="1051" y="904" width="140" height="60" as="geometry" />
        </mxCell>
        <mxCell id="-7W4iuTu1Z6AKvaiP86M-46" value="" style="endArrow=none;html=1;startArrow=classic;startFill=1;" edge="1" parent="1">
          <mxGeometry width="50" height="50" relative="1" as="geometry">
            <mxPoint x="1117.5" y="1030" as="sourcePoint" />
            <mxPoint x="1118" y="980" as="targetPoint" />
          </mxGeometry>
        </mxCell>
        <mxCell id="-7W4iuTu1Z6AKvaiP86M-47" value="&lt;font style=&quot;font-size: 14px&quot;&gt;gen prediction&lt;br&gt;tool:&amp;nbsp;prodigal&lt;br&gt;&lt;/font&gt;" style="rounded=1;whiteSpace=wrap;html=1;fillColor=none;" vertex="1" parent="1">
          <mxGeometry x="210.5" y="1021" width="163.33" height="39" as="geometry" />
        </mxCell>
        <mxCell id="-7W4iuTu1Z6AKvaiP86M-48" value="" style="endArrow=none;html=1;fontColor=#FF3333;strokeColor=#000000;strokeWidth=1;" edge="1" parent="1">
          <mxGeometry width="50" height="50" relative="1" as="geometry">
            <mxPoint x="280" y="990" as="sourcePoint" />
            <mxPoint x="558.0000000000001" y="990" as="targetPoint" />
          </mxGeometry>
        </mxCell>
        <mxCell id="-7W4iuTu1Z6AKvaiP86M-49" value="" style="endArrow=none;html=1;startArrow=classic;startFill=1;" edge="1" parent="1">
          <mxGeometry width="50" height="50" relative="1" as="geometry">
            <mxPoint x="279" y="1022" as="sourcePoint" />
            <mxPoint x="279" y="990" as="targetPoint" />
          </mxGeometry>
        </mxCell>
        <mxCell id="-7W4iuTu1Z6AKvaiP86M-50" value="&lt;span style=&quot;background-color: transparent&quot;&gt;&lt;br&gt;&lt;br&gt;&lt;div style=&quot;font-family: &amp;#34;arial&amp;#34; ; font-size: 11pt&quot;&gt;&lt;span style=&quot;background-color: transparent ; font-size: 11pt&quot;&gt;Files:&lt;/span&gt;&lt;/div&gt;&lt;div&gt;&lt;div&gt;&lt;font face=&quot;arial&quot;&gt;&lt;span style=&quot;font-size: 14.6667px&quot;&gt;&amp;nbsp;_.faa&amp;nbsp;&lt;/span&gt;&lt;/font&gt;&lt;/div&gt;&lt;div&gt;&lt;font face=&quot;arial&quot;&gt;&lt;span style=&quot;font-size: 14.6667px&quot;&gt;&amp;nbsp;_.nt -f&amp;nbsp;&lt;/span&gt;&lt;/font&gt;&lt;/div&gt;&lt;div&gt;&lt;font face=&quot;arial&quot;&gt;&lt;span style=&quot;font-size: 14.6667px&quot;&gt;_.gff&amp;nbsp;&lt;/span&gt;&lt;/font&gt;&lt;/div&gt;&lt;/div&gt;&lt;/span&gt;&lt;font&gt;&lt;div&gt;&lt;span style=&quot;font-size: 14px&quot;&gt;&lt;br&gt;&lt;/span&gt;&lt;/div&gt;&lt;br&gt;&lt;/font&gt;" style="rounded=0;whiteSpace=wrap;html=1;fillColor=none;align=left;" vertex="1" parent="1">
          <mxGeometry x="250" y="1100" width="60" height="80" as="geometry" />
        </mxCell>
        <mxCell id="-7W4iuTu1Z6AKvaiP86M-51" value="" style="endArrow=none;html=1;startArrow=classic;startFill=1;" edge="1" parent="1">
          <mxGeometry width="50" height="50" relative="1" as="geometry">
            <mxPoint x="280" y="1098" as="sourcePoint" />
            <mxPoint x="279.71000000000004" y="1060" as="targetPoint" />
          </mxGeometry>
        </mxCell>
      </root>
    </mxGraphModel>
  </diagram>
</mxfile>
